<svg width="73" height="36" viewBox="0 0 73 36" fill="none" xmlns="http://www.w3.org/2000/svg">
<path opacity="0.8" d="M69.5938 28H5.40625C5.18188 28 5 28.4477 5 29C5 29.5523 5.18188 30 5.40625 30H69.5938C69.8181 30 70 29.5523 70 29C70 28.4477 69.8181 28 69.5938 28Z" fill="#0064FA"/>
<g opacity="0.6">
<path d="M13.6992 25.875H11.418C11.2605 25.875 11.1328 26.1268 11.1328 26.4375C11.1328 26.7482 11.2605 27 11.418 27H13.6992C13.8567 27 13.9844 26.7482 13.9844 26.4375C13.9844 26.1268 13.8567 25.875 13.6992 25.875Z" fill="#0064FA"/>
<path d="M19.5508 25.875H17.2695C17.112 25.875 16.9844 26.1268 16.9844 26.4375C16.9844 26.7482 17.112 27 17.2695 27H19.5508C19.7083 27 19.8359 26.7482 19.8359 26.4375C19.8359 26.1268 19.7083 25.875 19.5508 25.875Z" fill="#0064FA"/>
<path d="M25.4023 25.875H23.1211C22.9636 25.875 22.8359 26.1268 22.8359 26.4375C22.8359 26.7482 22.9636 27 23.1211 27H25.4023C25.5598 27 25.6875 26.7482 25.6875 26.4375C25.6875 26.1268 25.5598 25.875 25.4023 25.875Z" fill="#0064FA"/>
<path d="M31.2539 25.875H28.9727C28.8152 25.875 28.6875 26.1268 28.6875 26.4375C28.6875 26.7482 28.8152 27 28.9727 27H31.2539C31.4114 27 31.5391 26.7482 31.5391 26.4375C31.5391 26.1268 31.4114 25.875 31.2539 25.875Z" fill="#0064FA"/>
<path d="M37.1055 25.875H34.8242C34.6667 25.875 34.5391 26.1268 34.5391 26.4375C34.5391 26.7482 34.6667 27 34.8242 27H37.1055C37.263 27 37.3906 26.7482 37.3906 26.4375C37.3906 26.1268 37.263 25.875 37.1055 25.875Z" fill="#0064FA"/>
<path d="M42.957 25.875H40.6758C40.5183 25.875 40.3906 26.1268 40.3906 26.4375C40.3906 26.7482 40.5183 27 40.6758 27H42.957C43.1145 27 43.2422 26.7482 43.2422 26.4375C43.2422 26.1268 43.1145 25.875 42.957 25.875Z" fill="#0064FA"/>
<path d="M48.8086 25.875H46.5273C46.3699 25.875 46.2422 26.1268 46.2422 26.4375C46.2422 26.7482 46.3699 27 46.5273 27H48.8086C48.9661 27 49.0938 26.7482 49.0938 26.4375C49.0938 26.1268 48.9661 25.875 48.8086 25.875Z" fill="#0064FA"/>
<path d="M54.6602 25.875H52.3789C52.2214 25.875 52.0938 26.1268 52.0938 26.4375C52.0938 26.7482 52.2214 27 52.3789 27H54.6602C54.8176 27 54.9453 26.7482 54.9453 26.4375C54.9453 26.1268 54.8176 25.875 54.6602 25.875Z" fill="#0064FA"/>
<path d="M60.5117 25.875H58.2305C58.073 25.875 57.9453 26.1268 57.9453 26.4375C57.9453 26.7482 58.073 27 58.2305 27H60.5117C60.6692 27 60.7969 26.7482 60.7969 26.4375C60.7969 26.1268 60.6692 25.875 60.5117 25.875Z" fill="#0064FA"/>
</g>
<path d="M10.5586 19.6875H7.70703C7.54954 19.6875 7.42188 19.9393 7.42188 20.25V21.375C7.42188 21.6857 7.54954 21.9375 7.70703 21.9375H10.5586C10.7161 21.9375 10.8438 21.6857 10.8438 21.375V20.25C10.8438 19.9393 10.7161 19.6875 10.5586 19.6875Z" fill="#0064FA"/>
<path d="M65.293 19.6875H62.4414C62.2839 19.6875 62.1562 19.9393 62.1562 20.25V21.375C62.1562 21.6857 62.2839 21.9375 62.4414 21.9375H65.293C65.4505 21.9375 65.5781 21.6857 65.5781 21.375V20.25C65.5781 19.9393 65.4505 19.6875 65.293 19.6875Z" fill="#0064FA"/>
<path d="M13.5508 17.4375H10.1289C9.97142 17.4375 9.84375 17.6893 9.84375 18V21.9375C9.84375 22.2482 9.97142 22.5 10.1289 22.5H13.5508C13.7083 22.5 13.8359 22.2482 13.8359 21.9375V18C13.8359 17.6893 13.7083 17.4375 13.5508 17.4375Z" fill="#0064FA"/>
<path d="M62.8711 17.4375H59.4492C59.2917 17.4375 59.1641 17.6893 59.1641 18V21.9375C59.1641 22.2482 59.2917 22.5 59.4492 22.5H62.8711C63.0286 22.5 63.1562 22.2482 63.1562 21.9375V18C63.1562 17.6893 63.0286 17.4375 62.8711 17.4375Z" fill="#0064FA"/>
<path d="M27.5176 21.9375H17.5371C17.3009 21.9375 17.1094 22.3153 17.1094 22.7812V23.9062C17.1094 24.3722 17.3009 24.75 17.5371 24.75H27.5176C27.7538 24.75 27.9453 24.3722 27.9453 23.9062V22.7812C27.9453 22.3153 27.7538 21.9375 27.5176 21.9375Z" fill="#0064FA"/>
<path d="M55.4629 21.9375H45.4824C45.2462 21.9375 45.0547 22.3153 45.0547 22.7812V23.9062C45.0547 24.3722 45.2462 24.75 45.4824 24.75H55.4629C55.6991 24.75 55.8906 24.3722 55.8906 23.9062V22.7812C55.8906 22.3153 55.6991 21.9375 55.4629 21.9375Z" fill="#0064FA"/>
<path d="M19.3906 29.25C20.0206 29.25 20.5312 28.2426 20.5312 27C20.5312 25.7574 20.0206 24.75 19.3906 24.75C18.7607 24.75 18.25 25.7574 18.25 27C18.25 28.2426 18.7607 29.25 19.3906 29.25Z" fill="#0064FA"/>
<path d="M25.6641 29.25C26.294 29.25 26.8047 28.2426 26.8047 27C26.8047 25.7574 26.294 24.75 25.6641 24.75C25.0341 24.75 24.5234 25.7574 24.5234 27C24.5234 28.2426 25.0341 29.25 25.6641 29.25Z" fill="#0064FA"/>
<path d="M47.3359 29.25C47.9659 29.25 48.4766 28.2426 48.4766 27C48.4766 25.7574 47.9659 24.75 47.3359 24.75C46.706 24.75 46.1953 25.7574 46.1953 27C46.1953 28.2426 46.706 29.25 47.3359 29.25Z" fill="#0064FA"/>
<path d="M53.6094 29.25C54.2393 29.25 54.75 28.2426 54.75 27C54.75 25.7574 54.2393 24.75 53.6094 24.75C52.9794 24.75 52.4688 25.7574 52.4688 27C52.4688 28.2426 52.9794 29.25 53.6094 29.25Z" fill="#0064FA"/>
<path d="M52.4688 7.875H20.5312C18.6414 7.875 17.1094 10.8971 17.1094 14.625C17.1094 18.3529 18.6414 21.375 20.5312 21.375H52.4688C54.3586 21.375 55.8906 18.3529 55.8906 14.625C55.8906 10.8971 54.3586 7.875 52.4688 7.875Z" fill="#0064FA"/>
<path d="M38.6387 5.625H34.3613C34.1251 5.625 33.9336 6.00276 33.9336 6.46875V7.03125C33.9336 7.49724 34.1251 7.875 34.3613 7.875H38.6387C38.8749 7.875 39.0664 7.49724 39.0664 7.03125V6.46875C39.0664 6.00276 38.8749 5.625 38.6387 5.625Z" fill="#0064FA"/>
</svg>
